<?xml version="1.0" encoding="UTF-8" standalone="no"?>
<svg
   xmlns:dc="http://purl.org/dc/elements/1.1/"
   xmlns:cc="http://creativecommons.org/ns#"
   xmlns:rdf="http://www.w3.org/1999/02/22-rdf-syntax-ns#"
   xmlns:svg="http://www.w3.org/2000/svg"
   xmlns="http://www.w3.org/2000/svg"
   xmlns:xlink="http://www.w3.org/1999/xlink"
   xmlns:sodipodi="http://sodipodi.sourceforge.net/DTD/sodipodi-0.dtd"
   xmlns:inkscape="http://www.inkscape.org/namespaces/inkscape"
   data-v-d3f97b9e=""
   viewBox="0 0 1847.0928 1086.679"
   version="1.1"
   id="svg11"
   sodipodi:docname="logo.svg"
   width="1847.0928"
   height="1086.679"
   inkscape:version="0.92.3 (2405546, 2018-03-11)"
   inkscape:export-filename="/home/drno/Escritorio/drno-logo/vector/default-monochrome-black.svg.png"
   inkscape:export-xdpi="15.59207"
   inkscape:export-ydpi="15.59207">
  <metadata
     id="metadata17">
    <rdf:RDF>
      <cc:Work
         rdf:about="">
        <dc:format>image/svg+xml</dc:format>
        <dc:type
           rdf:resource="http://purl.org/dc/dcmitype/StillImage" />
        <dc:title></dc:title>
      </cc:Work>
    </rdf:RDF>
  </metadata>
  <defs
     id="defs15">
    <clipPath
       clipPathUnits="userSpaceOnUse"
       id="clipPath3727">
      <use
         x="0"
         y="0"
         xlink:href="#g3723"
         id="use3729"
         width="100%"
         height="100%" />
    </clipPath>
  </defs>
  <sodipodi:namedview
     pagecolor="#ffffff"
     bordercolor="#666666"
     borderopacity="1"
     objecttolerance="10000"
     gridtolerance="10"
     guidetolerance="10"
     inkscape:pageopacity="0"
     inkscape:pageshadow="2"
     inkscape:window-width="1920"
     inkscape:window-height="1022"
     id="namedview13"
     showgrid="false"
     inkscape:zoom="0.23831089"
     inkscape:cx="1233.4517"
     inkscape:cy="421.39285"
     inkscape:window-x="0"
     inkscape:window-y="0"
     inkscape:window-maximized="1"
     inkscape:current-layer="g3910"
     inkscape:snap-path-clip="true"
     inkscape:snap-path-mask="false"
     inkscape:snap-perpendicular="false"
     inkscape:snap-tangential="false" />
  <!---->
  <!---->
  <!---->
  <!---->
  <g
     id="g3910">
    <g
       id="g3916">
      <g
         data-v-d3f97b9e=""
         id="7d552ab3-f4c0-424b-b9d6-11a2d62062ae"
         transform="matrix(5.5786889,0,0,5.5786889,-504.59818,-27.664719)"
         style="fill:#000000;stroke:none">
        <g
           id="g3725"
           clip-path="url(#clipPath3727)">
          <g
             inkscape:label="Clip"
             id="g3723">
            <path
               sodipodi:nodetypes="ccccccccccccccccccccccccscccscccccccscccccccccscccccccccccscccccccccccccccsccccccc"
               inkscape:connector-curvature="0"
               id="path5"
               d="m 257.423,4.959 c -10.652,0.655 -19.986,0.861 -29.232,1.87 -22.376,2.441 -38.639,13.324 -45.578,35.46 -3.03,9.666 -4.984,19.697 -6.934,29.659 -0.601,3.068 -1.567,3.968 -4.547,4.338 -13.987,1.736 -28.035,3.246 -41.871,5.846 -11.458,2.153 -22.586,5.981 -31.59,13.946 -10.695,9.461 -9.133,22.614 2.206,30.66 13.259,9.41 30.621,5.288 45.738,5.148 8.322,-0.078 16.643,-0.13 24.965,-0.179 24.504,-0.144 49.008,-0.239 73.512,-0.311 26.03,-0.076 52.061,-0.127 78.091,-0.108 14.785,0.011 30.029,0.019 44.987,0.343 13.707,0.297 29.331,3.66 42.216,-2.385 9.46,-4.438 14.685,-14.248 10.947,-24.365 -4.518,-12.227 -19.752,-17.503 -31.086,-21.043 -15.779,-4.929 -32.175,-6.549 -48.603,-7.6 -2.879,-0.184 -3.692,-1.244 -4.26,-4.085 -1.989,-9.957 -3.886,-20.001 -6.922,-29.665 C 323.092,22.21 308.884,10.484 287.86,7.61 277.362,6.173 266.726,5.739 257.423,4.959 Z m 96.793,136.03611 c -0.511,-3.227 -6.244,-4.159 -6.306,-4.167 -7.216,-0.982 -13.536,-1.636 -19.32,-2.001 -8.704,-0.551 -16.444,-0.818 -23.664,-0.818 -10.25,0 -19.567,0.533 -28.482,1.631 -6.465,0.797 -13.42,1.551 -20.409,1.667 -7.06,-0.116 -14.015,-0.87 -20.48,-1.667 -8.915,-1.098 -18.231,-1.631 -28.482,-1.631 -7.219,0 -14.96,0.267 -23.663,0.818 -5.784,0.365 -12.104,1.02 -19.325,2.002 -0.058,0.008 -5.79,0.94 -6.303,4.173 -0.37,2.388 -0.683,6.777 1.379,9.347 2.758,3.439 4.006,6.65 4.173,10.738 0.347,8.42 2.735,16.591 7.101,24.289 4.258,7.487 10.75,11.905 19.296,13.128 5.742,0.827 11.373,1.246 16.734,1.246 5.301,0 10.532,-0.409 15.548,-1.217 11.941,-1.929 20.214,-8.672 23.927,-19.501 1.944,-5.672 3.216,-11.609 4.446,-17.35 0.344,-1.603 0.687,-3.206 1.044,-4.801 0.828,-3.686 2.081,-4.361 4.568,-4.439 2.486,0.078 3.74,0.753 4.567,4.438 0.358,1.598 0.702,3.203 1.046,4.808 1.23,5.739 2.502,11.674 4.445,17.345 3.713,10.828 11.986,17.571 23.929,19.501 5.014,0.807 10.245,1.216 15.547,1.216 5.361,0 10.992,-0.419 16.733,-1.246 8.547,-1.224 15.039,-5.641 19.299,-13.131 4.364,-7.697 6.753,-15.868 7.099,-24.287 0.168,-4.088 1.416,-7.299 4.173,-10.737 2.064,-2.569 1.752,-6.959 1.38,-9.354 z m -61.561,47.39 c -11.646,-2.023 -18.045,-8.759 -19.564,-20.593 -0.243,-1.881 -0.371,-3.839 -0.496,-5.733 -0.0808,-1.3233 -0.17977,-2.64543 -0.297,-3.966 -0.414,-4.489 1.516,-7.642 5.582,-9.12 5.253,-1.913 10.465,-3.161 15.492,-3.708 4.642,-0.504 8.829,-0.75 12.798,-0.75 7.228,0 13.688,0.818 19.753,2.501 9.271,2.566 11.407,5.423 10.886,14.552 -0.345,5.867 -1.478,11.462 -3.275,16.179 -2.502,6.559 -8.182,10.206 -17.367,11.148 -2.415,0.246 -4.924,0.349 -7.58,0.459 -1.223,0.051 -2.493,0.103 -3.828,0.171 -1.058,-0.092 -2.177,-0.166 -3.336,-0.243 -2.87,-0.19 -5.837,-0.387 -8.768,-0.897 z m -82.076,0.898 c -1.159,0.077 -2.278,0.151 -3.336,0.243 -1.2757,-0.0635 -2.55172,-0.12051 -3.828,-0.171 -2.657,-0.109 -5.166,-0.213 -7.58,-0.458 -9.186,-0.943 -14.867,-4.589 -17.368,-11.148 -1.798,-4.717 -2.931,-10.312 -3.276,-16.176 -0.52,-9.132 1.616,-11.989 10.887,-14.556 6.063,-1.682 12.525,-2.501 19.752,-2.501 3.969,0 8.155,0.245 12.798,0.75 5.026,0.547 10.238,1.794 15.493,3.708 4.065,1.477 5.995,4.63 5.581,9.116 -0.11795,1.3222 -0.21729,2.646 -0.298,3.971 -0.124,1.893 -0.253,3.851 -0.496,5.732 -1.519,11.833 -7.918,18.568 -19.564,20.591 -2.93,0.511 -5.896,0.708 -8.765,0.899 z" />
          </g>
        </g>
      </g>
    </g>
  </g>
  <!---->
</svg>
